<?xml version="1.0" standalone="no"?>
<!DOCTYPE svg PUBLIC "-//W3C//DTD SVG 20010904//EN"
 "http://www.w3.org/TR/2001/REC-SVG-20010904/DTD/svg10.dtd">
<svg version="1.0" xmlns="http://www.w3.org/2000/svg"
 width="1000.000000pt" height="1000.000000pt" viewBox="0 0 1000.000000 1000.000000"
 preserveAspectRatio="xMidYMid meet">
<metadata>
Created by potrace 1.14, written by Peter Selinger 2001-2017
</metadata>
<g transform="translate(0.000000,1000.000000) scale(0.100000,-0.100000)"
fill="#000000" stroke="none">
<path d="M4665 9989 c-643 -43 -1279 -214 -1860 -498 -1607 -786 -2665 -2357
-2794 -4151 -13 -180 -5 -667 14 -840 82 -756 310 -1441 690 -2075 605 -1011
1571 -1788 2690 -2163 401 -135 829 -221 1255 -251 179 -13 667 -5 840 14 611
66 1155 221 1685 479 1436 699 2450 2037 2734 3608 29 156 59 393 68 530 12
171 8 657 -6 798 -64 650 -220 1204 -496 1765 -621 1262 -1729 2194 -3084
2594 -317 94 -730 168 -1061 190 -161 10 -521 11 -675 0z"/>
</g>
</svg>
